<?xml version="1.0" standalone="no"?><!DOCTYPE svg PUBLIC "-//W3C//DTD SVG 1.1//EN" "http://www.w3.org/Graphics/SVG/1.1/DTD/svg11.dtd"><svg t="1520475176254" class="icon" style="" viewBox="0 0 1024 1024" version="1.1" xmlns="http://www.w3.org/2000/svg" p-id="2789" xmlns:xlink="http://www.w3.org/1999/xlink" width="32" height="32"><defs><style type="text/css"></style></defs><path d="M745.568374 1023.996759C680.146156 1023.996759 595.685233 979.987912 536.346972 943.058565 456.887086 893.610547 371.282104 825.203973 295.299456 750.444959L295.022694 750.172918 270.899277 725.802721C196.862013 649.079516 129.125929 562.627666 80.156616 482.388997 43.591747 422.470702 0 337.179873 0 271.118024 0 200.420168 50.065101 125.384253 71.589842 96.405581 88.382264 73.789066 147.067238 0 196.923156 0 217.395558 0 239.440036 13.529103 268.418068 43.877688 294.045978 70.707574 318.63764 104.063165 334.755855 127.319296 356.399667 158.539054 376.416696 191.229123 391.128571 219.370624 414.943043 264.930744 417.697797 284.473861 417.697797 295.204844 417.697797 316.864364 406.493732 335.656131 384.399375 351.045786 369.851628 361.176018 352.389827 368.804454 335.504077 376.181903 324.111749 381.15796 305.92747 389.09568 298.987479 394.682204 301.409157 405.032653 311.988895 430.034371 340.575918 472.415841 367.212728 511.906893 401.660037 554.706135 432.781368 586.976809 464.734597 618.397358 507.113098 653.187635 546.233196 680.088771 588.191718 708.945997 612.942679 719.634877 623.205432 722.081613 628.727813 715.078216 636.597852 696.713938 641.521654 685.215416 648.828513 668.159519 656.378348 650.522296 666.419041 635.830548 681.660303 613.520082 700.266168 602.212634 721.71689 602.212634 732.349732 602.212634 751.697382 604.99456 796.819369 629.03766 824.68713 643.891338 857.063547 664.104837 887.977308 685.961907 911.003325 702.23893 944.036255 727.075476 970.610309 752.949985 1000.656768 782.21527 1014.055629 804.472305 1014.055629 825.152159 1014.055629 875.494021 940.987034 934.751647 918.594995 951.708769 889.888901 973.447634 815.578092 1024 745.566761 1024L745.568374 1023.996759M337.217756 707.278136C410.110956 778.976707 491.973207 844.42647 567.764372 891.583206 641.238456 937.310111 706.047611 963.537623 745.568374 963.537623 780.775173 963.537623 830.962565 941.824671 879.833723 905.465313 901.253878 889.518623 920.749563 871.764813 934.734126 855.471596 947.853005 840.172616 952.649692 830.197842 953.867771 826.169068 948.794322 815.167662 918.680279 780.777349 848.39701 731.818358 820.825324 712.613668 792.320364 694.963497 768.134195 682.119347 737.762698 665.997778 725.104015 663.214228 722.20927 662.754355 721.082911 663.534848 717.776241 666.326492 712.747848 674.839055 707.117655 684.371768 701.709517 697.00055 696.476769 709.216415 690.038815 724.256307 683.37559 739.801416 675.204654 752.350853 661.91682 772.755425 645.603907 783.112356 626.714849 783.122068 626.378547 783.122068 626.018115 783.117215 625.651241 783.102638 616.464968 782.908324 588.481357 782.309192 512.518016 730.067912 470.580408 701.215544 425.03362 663.811748 390.705382 629.99466L390.167946 629.461914C356.687693 594.780129 319.648143 548.797379 291.080433 506.453151 239.338665 429.742899 238.736865 401.488046 238.543775 392.201462 238.13185 372.783032 248.283571 356.025078 268.696438 342.369674 281.179725 334.025513 296.707405 327.242342 311.720177 320.681011 323.81568 315.402148 336.318275 309.940311 345.757174 304.261489 354.185564 299.189898 356.959631 295.842842 357.725558 294.706104 357.270185 291.78006 354.513818 278.999071 338.546862 248.326625 325.831864 223.909473 308.349143 195.118638 289.337795 167.281556 240.847985 96.298706 206.793293 65.895066 195.902996 60.771656 191.912463 62.007168 182.032676 66.850442 166.886349 80.096169 150.74561 94.208215 133.163126 113.905162 117.381212 135.537152 81.371479 184.875059 59.874089 235.560207 59.874089 271.113165 59.874089 311.018752 85.841516 376.460421 131.11959 450.657546 177.829745 527.192914 242.637292 609.858888 313.636598 683.46497L337.217756 707.278136M693.559496 490.320241C683.110093 490.320241 673.85302 482.756577 671.980042 472.004541 666.608916 441.252756 648.97494 414.5346 622.325258 396.769454 595.297444 378.756562 562.261299 372.067308 529.292739 377.937203 517.353318 380.064942 505.977083 372.012252 503.874007 359.963172 501.770931 347.912479 509.739126 336.417193 521.672105 334.294313 565.735316 326.445655 610.067241 335.500677 646.49856 359.788293 683.314447 384.325274 707.713014 421.444076 715.200092 464.311332 717.303168 476.360412 709.333366 487.855693 697.400387 489.978573 696.109896 490.206894 694.829066 490.318623 693.561103 490.318623L693.559496 490.320241M825.657411 433.098051C815.214438 433.098051 805.952543 425.536005 804.077957 414.788828 793.659126 355.111803 759.507886 303.309353 707.927025 268.925517 655.959982 234.290688 592.520161 221.417395 529.292739 232.674647 517.353318 234.797527 505.980298 226.749691 503.872399 214.700616 501.769324 202.649917 509.737513 191.154632 521.670497 189.033375 595.995786 175.800602 670.726564 191.031567 732.097106 231.944351 793.850604 273.100022 834.761615 335.301509 847.296394 407.094001 849.39947 419.144699 841.431276 430.63998 829.496689 432.761242 828.20459 432.986322 826.925368 433.096433 825.659018 433.096433L825.657411 433.098051M1002.026102 416.581371C991.576699 416.581371 982.316411 409.016084 980.441825 398.264054 962.664643 296.425784 904.438257 208.055081 816.501709 149.446784 728.183808 90.585882 620.42815 68.694804 513.086024 87.805573 501.153039 89.928453 489.773583 81.88224 487.670513 69.831542 485.567437 57.780844 493.535626 46.285558 505.468611 44.164301 623.905382 23.073152 742.955218 47.328379 840.678226 112.460764 938.779372 177.844137 1003.767132 276.615485 1023.663483 390.569226 1025.766559 402.619924 1017.793536 414.115205 1005.860557 416.238085 1004.574894 416.468024 1003.292452 416.582994 1002.024494 416.582994L1002.026102 416.581371" p-id="2790"></path></svg>