<?xml version="1.0" standalone="no"?><!DOCTYPE svg PUBLIC "-//W3C//DTD SVG 1.1//EN" "http://www.w3.org/Graphics/SVG/1.1/DTD/svg11.dtd"><svg t="1521016637273" class="icon" style="" viewBox="0 0 1024 1024" version="1.1" xmlns="http://www.w3.org/2000/svg" p-id="3085" xmlns:xlink="http://www.w3.org/1999/xlink" width="32" height="32"><defs><style type="text/css"></style></defs><path d="M804.23424 866.5344 630.5792 866.5344c-72.14592 0-129.62816-58.69568-129.62816-129.62816L500.95104 494.7712c0-9.78432 8.55552-18.34496 18.34496-18.34496 9.7792 0 18.34496 8.56064 18.34496 18.34496l0 240.91136c0 51.36896 41.57952 92.94336 92.93824 92.94336l173.65504 0c86.82496 0 158.98112-64.81408 163.87072-147.968 2.44736-44.02176-12.23168-86.82496-42.8032-118.62528-30.57152-31.80032-70.92736-50.14016-116.1728-50.14016l-3.67104 0c-6.11328 0-11.00288-2.44736-14.67392-6.11328-3.66592-4.8896-4.89472-9.7792-3.66592-15.89248 7.33696-35.46624 8.56064-72.15616 1.21856-107.6224-20.79232-118.62016-119.84384-209.11616-239.68768-222.5664-77.04576-8.56064-152.86272 15.8976-211.56352 68.48C279.6032 279.53664 245.36576 352.91136 245.36576 431.17568c0 8.56064-6.11328 17.11616-15.8976 18.34496-95.3856 13.45024-165.0944 97.83808-161.42336 195.66592 3.67104 100.2752 92.94336 183.43424 198.11328 183.43424l84.3776 0c9.78432 0 18.34496 8.55552 18.34496 18.33984 0 9.78944-8.56064 17.1264-19.56864 17.1264l-84.3776 0c-123.51488 0-228.6848-97.82784-233.5744-217.6768-4.89472-111.28832 70.92736-207.8976 177.32096-231.13728 4.8896-81.93536 41.57952-158.98112 103.94624-214.01088 66.03776-58.69568 151.63904-86.82496 240.91648-77.04064 135.74144 13.45024 248.24832 117.4016 271.48288 251.91936 6.11328 34.24256 7.33696 67.26144 2.44736 100.2752 47.6928 3.67104 92.93824 25.68704 124.73344 61.14304 37.90848 40.36096 56.25344 91.7248 52.58752 146.75456C998.67648 785.82272 910.62784 866.5344 804.23424 866.5344L804.23424 866.5344z" p-id="3086" fill="#ffffff"></path><path d="M663.59808 631.73632c-4.8896 0-9.78432-1.22368-13.45536-4.8896l-132.0704-133.2992L385.9968 625.61792c-7.33696 7.34208-18.34496 7.34208-25.68192 0-7.33696-7.33696-7.33696-18.34496 0-25.68192l145.52576-145.52576c7.33696-7.33696 19.56352-7.33696 25.68192 0l145.53088 145.52576c7.33696 7.33696 7.33696 18.34496 0 25.68192C673.38752 629.29408 668.48768 631.73632 663.59808 631.73632L663.59808 631.73632z" p-id="3087" fill="#ffffff"></path></svg>